<svg xmlns="http://www.w3.org/2000/svg" xmlns:xlink="http://www.w3.org/1999/xlink" width="613" zoomAndPan="magnify" viewBox="0 0 459.75 133.500001" height="178" preserveAspectRatio="xMidYMid meet" version="1.0"><defs><g/><clipPath id="e88a2118cc"><path d="M 430.8125 38.167969 L 438.285156 38.167969 L 438.285156 46 L 430.8125 46 Z M 430.8125 38.167969 " clip-rule="nonzero"/></clipPath><clipPath id="f678f099ec"><path d="M 217 62 L 233 62 L 233 79 L 217 79 Z M 217 62 " clip-rule="nonzero"/></clipPath><clipPath id="a2cb2ae9e2"><path d="M 220.742188 60.277344 L 234.914062 67.011719 L 228.503906 80.507812 L 214.332031 73.777344 Z M 220.742188 60.277344 " clip-rule="nonzero"/></clipPath><clipPath id="022885dd11"><path d="M 220.742188 60.277344 L 234.914062 67.011719 L 228.503906 80.507812 L 214.332031 73.777344 Z M 220.742188 60.277344 " clip-rule="nonzero"/></clipPath></defs><g clip-path="url(#e88a2118cc)"><path fill="#ffffff" d="M 434.410156 45.710938 C 432.425781 45.710938 430.8125 44.101562 430.8125 42.113281 C 430.8125 40.128906 432.425781 38.515625 434.410156 38.515625 C 436.398438 38.515625 438.007812 40.128906 438.007812 42.113281 C 438.007812 44.101562 436.398438 45.710938 434.410156 45.710938 Z M 434.410156 45.058594 C 436.035156 45.058594 437.355469 43.742188 437.355469 42.113281 C 437.355469 40.488281 436.035156 39.171875 434.410156 39.171875 C 432.785156 39.171875 431.46875 40.488281 431.46875 42.113281 C 431.46875 43.742188 432.785156 45.058594 434.410156 45.058594 Z M 435.191406 41.546875 C 435.167969 41.457031 435.136719 41.371094 435.09375 41.296875 C 435.054688 41.222656 435 41.15625 434.9375 41.101562 C 434.871094 41.046875 434.796875 41.003906 434.710938 40.972656 C 434.625 40.941406 434.527344 40.925781 434.410156 40.925781 C 434.246094 40.925781 434.101562 40.957031 433.980469 41.027344 C 433.859375 41.09375 433.761719 41.183594 433.6875 41.296875 C 433.609375 41.40625 433.554688 41.535156 433.519531 41.675781 C 433.480469 41.820312 433.460938 41.964844 433.460938 42.113281 C 433.460938 42.261719 433.480469 42.410156 433.519531 42.554688 C 433.554688 42.695312 433.609375 42.820312 433.6875 42.933594 C 433.761719 43.046875 433.859375 43.136719 433.980469 43.203125 C 434.101562 43.273438 434.246094 43.304688 434.410156 43.304688 C 434.535156 43.304688 434.644531 43.285156 434.734375 43.242188 C 434.828125 43.199219 434.910156 43.140625 434.976562 43.066406 C 435.042969 42.992188 435.097656 42.90625 435.132812 42.804688 C 435.171875 42.707031 435.195312 42.601562 435.207031 42.488281 L 435.742188 42.488281 C 435.730469 42.671875 435.6875 42.84375 435.621094 43 C 435.550781 43.152344 435.460938 43.285156 435.34375 43.398438 C 435.226562 43.511719 435.089844 43.597656 434.933594 43.660156 C 434.773438 43.71875 434.601562 43.75 434.410156 43.75 C 434.179688 43.75 433.96875 43.707031 433.785156 43.621094 C 433.597656 43.535156 433.441406 43.417969 433.3125 43.269531 C 433.1875 43.121094 433.085938 42.949219 433.019531 42.75 C 432.953125 42.550781 432.917969 42.339844 432.917969 42.113281 C 432.917969 41.894531 432.953125 41.683594 433.019531 41.484375 C 433.085938 41.285156 433.1875 41.113281 433.3125 40.964844 C 433.441406 40.816406 433.597656 40.699219 433.785156 40.609375 C 433.96875 40.523438 434.179688 40.480469 434.410156 40.480469 C 434.585938 40.480469 434.753906 40.503906 434.90625 40.550781 C 435.058594 40.601562 435.195312 40.671875 435.3125 40.761719 C 435.433594 40.851562 435.527344 40.964844 435.601562 41.097656 C 435.675781 41.226562 435.71875 41.378906 435.738281 41.546875 Z M 435.191406 41.546875 " fill-opacity="1" fill-rule="nonzero"/></g><g clip-path="url(#f678f099ec)"><g clip-path="url(#a2cb2ae9e2)"><g clip-path="url(#022885dd11)"><path fill="#ffffff" d="M 230.449219 64.90625 C 230.421875 64.890625 230.390625 64.878906 230.359375 64.867188 C 229.074219 64.507812 227.820312 65.453125 227.199219 66.519531 C 226.585938 67.457031 226.414062 68.960938 227.410156 69.710938 C 227.558594 69.816406 227.730469 69.882812 227.90625 69.914062 C 229.449219 70.101562 230.792969 68.808594 231.21875 67.410156 C 231.5625 66.542969 231.363281 65.324219 230.449219 64.90625 Z M 225.386719 62.566406 C 224.636719 62.234375 223.707031 62.707031 223.253906 63.359375 C 222.34375 64.636719 222.15625 66.671875 223.398438 67.804688 C 223.523438 67.898438 223.660156 67.96875 223.808594 68.015625 C 224.871094 68.316406 225.808594 67.414062 226.191406 66.503906 C 226.71875 65.316406 226.753906 63.667969 225.691406 62.757812 C 225.59375 62.675781 225.492188 62.613281 225.386719 62.566406 Z M 231.761719 70.453125 C 230.445312 69.921875 228.964844 70.78125 228.273438 71.914062 C 227.695312 72.695312 227.609375 74.058594 228.554688 74.59375 C 229.929688 75.226562 231.558594 74.210938 232.191406 72.96875 C 232.675781 72.179688 232.664062 70.9375 231.761719 70.453125 Z M 220.4375 65.421875 C 219.894531 65.160156 219.203125 65.230469 218.765625 65.699219 C 217.585938 66.953125 217.648438 69.277344 219.070312 70.332031 C 219.667969 70.757812 220.480469 70.527344 220.929688 70 C 221.890625 68.871094 221.894531 67.035156 220.980469 65.882812 C 220.835938 65.679688 220.648438 65.523438 220.4375 65.421875 Z M 224.90625 70.796875 C 223.839844 70.292969 222.5 70.320312 221.425781 70.796875 C 220.234375 71.382812 219.105469 72.183594 218.304688 73.253906 C 217.609375 73.96875 217.800781 75.265625 218.710938 75.703125 C 219.792969 76.253906 221.09375 75.949219 222.210938 76.410156 C 223.203125 76.710938 223.800781 77.585938 224.484375 78.296875 C 225.050781 78.933594 226.082031 79.285156 226.808594 78.691406 C 227.460938 78.050781 227.433594 77.023438 227.414062 76.167969 C 227.242188 74.710938 227.042969 73.175781 226.214844 71.925781 C 225.886719 71.417969 225.429688 71.042969 224.90625 70.796875 Z M 224.90625 70.796875 " fill-opacity="1" fill-rule="nonzero"/></g></g></g><g fill="#eb8815" fill-opacity="1"><g transform="translate(148.164413, 92.769249)"><g><path d="M 17.609375 1.203125 C 13.609375 1.203125 10.351562 -0.101562 7.84375 -2.71875 C 5.332031 -5.332031 4.078125 -9.039062 4.078125 -13.84375 C 4.078125 -17.257812 4.664062 -20.515625 5.84375 -23.609375 C 7.019531 -26.703125 8.660156 -29.460938 10.765625 -31.890625 C 12.867188 -34.328125 15.304688 -36.238281 18.078125 -37.625 C 20.859375 -39.007812 23.878906 -39.703125 27.140625 -39.703125 C 30.492188 -39.703125 33.066406 -38.941406 34.859375 -37.421875 C 36.648438 -35.898438 37.546875 -33.882812 37.546875 -31.375 C 37.546875 -29.289062 36.570312 -27.234375 34.625 -25.203125 C 32.675781 -23.179688 29.9375 -21.359375 26.40625 -19.734375 C 22.882812 -18.109375 18.753906 -16.867188 14.015625 -16.015625 C 14.066406 -12.328125 14.863281 -9.628906 16.40625 -7.921875 C 17.957031 -6.210938 20.09375 -5.359375 22.8125 -5.359375 C 25.101562 -5.359375 27.207031 -5.984375 29.125 -7.234375 C 31.050781 -8.492188 32.679688 -9.976562 34.015625 -11.6875 L 34.828125 -11.125 C 33.753906 -9.039062 32.375 -7.066406 30.6875 -5.203125 C 29.007812 -3.335938 27.078125 -1.800781 24.890625 -0.59375 C 22.703125 0.601562 20.273438 1.203125 17.609375 1.203125 Z M 26.578125 -37.546875 C 25.347656 -37.546875 24.023438 -37.007812 22.609375 -35.9375 C 21.191406 -34.875 19.859375 -33.421875 18.609375 -31.578125 C 17.359375 -29.734375 16.316406 -27.625 15.484375 -25.25 C 14.660156 -22.875 14.171875 -20.351562 14.015625 -17.6875 C 19.878906 -19.289062 24.050781 -21.398438 26.53125 -24.015625 C 29.007812 -26.628906 30.25 -29.59375 30.25 -32.90625 C 30.25 -34.5 29.898438 -35.671875 29.203125 -36.421875 C 28.515625 -37.171875 27.640625 -37.546875 26.578125 -37.546875 Z M 26.578125 -37.546875 "/></g></g></g><g fill="#eb8815" fill-opacity="1"><g transform="translate(184.661742, 92.769249)"><g><path d="M 11.53125 1.203125 C 9.875 1.203125 8.5 0.765625 7.40625 -0.109375 C 6.3125 -0.992188 5.765625 -2.289062 5.765625 -4 C 5.765625 -5.070312 5.867188 -6.234375 6.078125 -7.484375 C 6.296875 -8.734375 6.535156 -10.082031 6.796875 -11.53125 L 12.328125 -36.828125 L 5.6875 -36.828125 L 5.921875 -37.78125 L 8.8125 -38.109375 C 10.300781 -38.265625 11.601562 -38.632812 12.71875 -39.21875 C 13.84375 -39.8125 14.910156 -40.640625 15.921875 -41.703125 L 23.609375 -49.46875 L 24.8125 -49.46875 L 22.578125 -38.5 L 31.296875 -38.5 L 30.890625 -36.828125 L 22.171875 -36.828125 L 16.65625 -10.171875 C 16.4375 -9.148438 16.273438 -8.28125 16.171875 -7.5625 C 16.066406 -6.84375 16.015625 -6.242188 16.015625 -5.765625 C 16.015625 -5.234375 16.171875 -4.804688 16.484375 -4.484375 C 16.804688 -4.160156 17.15625 -4 17.53125 -4 C 18.28125 -4 19.082031 -4.304688 19.9375 -4.921875 C 20.789062 -5.535156 21.859375 -6.457031 23.140625 -7.6875 L 24.09375 -6.890625 C 22.757812 -4.910156 21.023438 -3.066406 18.890625 -1.359375 C 16.753906 0.347656 14.300781 1.203125 11.53125 1.203125 Z M 11.53125 1.203125 "/></g></g></g><g fill="#ffffff" fill-opacity="1"><g transform="translate(222.777868, 91.715204)"><g><path d="M 44.390625 -38.84375 C 43.835938 -40.894531 42.828125 -43.046875 41.359375 -45.296875 C 39.898438 -47.546875 38.640625 -48.953125 37.578125 -49.515625 C 36.515625 -50.085938 33.992188 -50.375 30.015625 -50.375 L 27.75 -50.375 L 27.75 -7.78125 C 27.75 -6.375 28.195312 -5.269531 29.09375 -4.46875 C 30 -3.664062 32.429688 -3.078125 36.390625 -2.703125 L 36.390625 0 L 11.234375 0 L 11.234375 -2.703125 C 14.910156 -2.953125 17.25 -3.363281 18.25 -3.9375 C 19.25 -4.519531 19.75 -5.675781 19.75 -7.40625 L 19.75 -50.375 L 17.609375 -50.375 C 13.984375 -50.375 11.640625 -50.191406 10.578125 -49.828125 C 9.515625 -49.460938 8.195312 -48.144531 6.625 -45.875 C 5.0625 -43.613281 3.929688 -41.269531 3.234375 -38.84375 L 0.53125 -38.84375 L 0.53125 -53.296875 L 46.984375 -53.296875 L 46.984375 -38.84375 Z M 44.390625 -38.84375 "/></g></g></g><g fill="#ffffff" fill-opacity="1"><g transform="translate(270.399299, 91.715204)"><g><path d="M 47.46875 0 L 3.234375 0 L 3.234375 -2.703125 C 6.585938 -2.984375 8.695312 -3.414062 9.5625 -4 C 10.425781 -4.582031 10.859375 -5.664062 10.859375 -7.25 L 10.859375 -45.515625 C 10.859375 -47.273438 10.1875 -48.515625 8.84375 -49.234375 C 7.5 -49.960938 5.628906 -50.425781 3.234375 -50.625 L 3.234375 -53.296875 L 44.46875 -53.296875 L 44.46875 -40.453125 L 41.6875 -40.453125 C 41.164062 -42.398438 40.171875 -44.300781 38.703125 -46.15625 C 37.242188 -48.007812 35.988281 -49.160156 34.9375 -49.609375 C 33.882812 -50.066406 31.316406 -50.296875 27.234375 -50.296875 L 18.859375 -50.296875 L 18.859375 -29.140625 L 24.859375 -29.140625 C 27.691406 -29.140625 29.734375 -29.769531 30.984375 -31.03125 C 32.234375 -32.300781 33.109375 -34.578125 33.609375 -37.859375 L 36.390625 -37.859375 L 36.390625 -17.015625 L 33.609375 -17.015625 C 33.484375 -18.265625 33.132812 -19.734375 32.5625 -21.421875 C 31.988281 -23.117188 31.164062 -24.316406 30.09375 -25.015625 C 29.03125 -25.710938 27.285156 -26.0625 24.859375 -26.0625 L 18.859375 -26.0625 L 18.859375 -10.0625 C 18.859375 -7.007812 19.335938 -5.082031 20.296875 -4.28125 C 21.265625 -3.476562 23.800781 -3.078125 27.90625 -3.078125 L 31.171875 -3.078125 C 34.679688 -3.078125 37.046875 -3.351562 38.265625 -3.90625 C 39.492188 -4.457031 40.847656 -5.972656 42.328125 -8.453125 C 43.804688 -10.929688 44.957031 -13.347656 45.78125 -15.703125 L 48.453125 -15.703125 Z M 47.46875 0 "/></g></g></g><g fill="#ffffff" fill-opacity="1"><g transform="translate(320.612128, 91.715204)"><g><path d="M 48.375 -13.453125 C 44.46875 -3.660156 37.394531 1.234375 27.15625 1.234375 C 20.375 1.234375 14.640625 -1.3125 9.953125 -6.40625 C 5.265625 -11.5 2.921875 -18.078125 2.921875 -26.140625 C 2.921875 -34.398438 5.332031 -41.1875 10.15625 -46.5 C 14.976562 -51.8125 21.03125 -54.46875 28.3125 -54.46875 C 33.195312 -54.46875 37.609375 -53.238281 41.546875 -50.78125 L 43.078125 -53.296875 L 46.078125 -53.296875 L 46.46875 -34.296875 L 43.3125 -34.296875 C 40.875 -45.640625 36.023438 -51.3125 28.765625 -51.3125 C 23.660156 -51.3125 19.570312 -49.128906 16.5 -44.765625 C 13.4375 -40.410156 11.90625 -34.390625 11.90625 -26.703125 C 11.90625 -19.890625 13.59375 -14.234375 16.96875 -9.734375 C 20.351562 -5.242188 24.675781 -3 29.9375 -3 C 37.320312 -3 42.539062 -6.945312 45.59375 -14.84375 Z M 48.375 -13.453125 "/></g></g></g><g fill="#ffffff" fill-opacity="1"><g transform="translate(369.998718, 91.715204)"><g><path d="M 36.765625 0 L 36.765625 -2.703125 C 39.671875 -2.953125 41.394531 -3.1875 41.9375 -3.40625 C 42.476562 -3.632812 42.925781 -4.023438 43.28125 -4.578125 C 43.644531 -5.128906 43.828125 -5.957031 43.828125 -7.0625 L 43.828125 -26.0625 L 18.859375 -26.0625 L 18.859375 -7.546875 C 18.859375 -6.023438 19.320312 -4.894531 20.25 -4.15625 C 21.175781 -3.414062 23.015625 -2.929688 25.765625 -2.703125 L 25.765625 0 L 3.6875 0 L 3.6875 -2.703125 C 7.113281 -2.847656 9.164062 -3.3125 9.84375 -4.09375 C 10.519531 -4.875 10.859375 -5.863281 10.859375 -7.0625 L 10.859375 -45.515625 C 10.859375 -48.523438 8.46875 -50.226562 3.6875 -50.625 L 3.6875 -53.296875 L 25.765625 -53.296875 L 25.765625 -50.625 C 23.140625 -50.40625 21.332031 -50.003906 20.34375 -49.421875 C 19.351562 -48.847656 18.859375 -47.6875 18.859375 -45.9375 L 18.859375 -29.375 L 43.828125 -29.375 L 43.828125 -45.515625 C 43.828125 -48.523438 41.472656 -50.226562 36.765625 -50.625 L 36.765625 -53.296875 L 58.859375 -53.296875 L 58.859375 -50.625 C 56.203125 -50.40625 54.363281 -49.992188 53.34375 -49.390625 C 52.332031 -48.785156 51.828125 -47.632812 51.828125 -45.9375 L 51.828125 -7.546875 C 51.828125 -5.972656 52.332031 -4.828125 53.34375 -4.109375 C 54.363281 -3.398438 56.203125 -2.929688 58.859375 -2.703125 L 58.859375 0 Z M 36.765625 0 "/></g></g></g><g fill="#eb8815" fill-opacity="1"><g transform="translate(109.248976, 95.466028)"><g><path d="M 18.21875 0.328125 L 10.203125 -47.765625 C 9.878906 -49.753906 8.769531 -51.316406 6.875 -52.453125 L 6.5625 -52.625 L 6.71875 -53.421875 L 25.75 -53.421875 L 25.65625 -52.625 L 24.609375 -52.21875 C 22.554688 -51.300781 21.691406 -49.816406 22.015625 -47.765625 L 27.28125 -11.328125 L 45.65625 -48 C 46.6875 -50.164062 46.09375 -51.625 43.875 -52.375 L 43.0625 -52.625 L 43.234375 -53.421875 L 54.234375 -53.421875 L 54.078125 -52.625 L 53.1875 -52.375 C 50.757812 -51.507812 48.953125 -49.914062 47.765625 -47.59375 L 23.390625 0.328125 Z M 18.21875 0.328125 "/></g></g></g></svg>