<svg xmlns="http://www.w3.org/2000/svg" xmlns:xlink="http://www.w3.org/1999/xlink" width="2000" zoomAndPan="magnify" viewBox="0 0 1500 449.999984" height="600" preserveAspectRatio="xMidYMid meet" version="1.0"><defs><g/><clipPath id="bc26bfc6e2"><path d="M 1445.011719 103 L 1478 103 L 1478 136 L 1445.011719 136 Z M 1445.011719 103 " clip-rule="nonzero"/></clipPath><clipPath id="f1513c8fb4"><path d="M 473 203 L 539 203 L 539 278 L 473 278 Z M 473 203 " clip-rule="nonzero"/></clipPath><clipPath id="486d1bdcad"><path d="M 485.957031 194.023438 L 550.316406 224.589844 L 521.679688 284.886719 L 457.320312 254.316406 Z M 485.957031 194.023438 " clip-rule="nonzero"/></clipPath><clipPath id="d867bb855d"><path d="M 485.957031 194.023438 L 550.316406 224.589844 L 521.679688 284.886719 L 457.320312 254.316406 Z M 485.957031 194.023438 " clip-rule="nonzero"/></clipPath></defs><g clip-path="url(#bc26bfc6e2)"><path fill="#ffffff" d="M 1461.074219 135.546875 C 1452.207031 135.546875 1445.011719 128.355469 1445.011719 119.488281 C 1445.011719 110.621094 1452.207031 103.425781 1461.074219 103.425781 C 1469.941406 103.425781 1477.132812 110.621094 1477.132812 119.488281 C 1477.132812 128.355469 1469.941406 135.546875 1461.074219 135.546875 Z M 1461.074219 132.625 C 1468.328125 132.625 1474.214844 126.742188 1474.214844 119.488281 C 1474.214844 112.230469 1468.328125 106.347656 1461.074219 106.347656 C 1453.820312 106.347656 1447.933594 112.230469 1447.933594 119.488281 C 1447.933594 126.742188 1453.820312 132.625 1461.074219 132.625 Z M 1464.546875 116.945312 C 1464.449219 116.542969 1464.304688 116.171875 1464.121094 115.835938 C 1463.941406 115.5 1463.703125 115.207031 1463.414062 114.953125 C 1463.132812 114.710938 1462.800781 114.519531 1462.410156 114.382812 C 1462.03125 114.246094 1461.582031 114.179688 1461.074219 114.179688 C 1460.335938 114.179688 1459.695312 114.324219 1459.15625 114.628906 C 1458.617188 114.921875 1458.175781 115.328125 1457.832031 115.828125 C 1457.5 116.332031 1457.25 116.894531 1457.089844 117.53125 C 1456.921875 118.171875 1456.835938 118.824219 1456.835938 119.488281 C 1456.835938 120.148438 1456.921875 120.800781 1457.089844 121.441406 C 1457.25 122.078125 1457.5 122.640625 1457.832031 123.144531 C 1458.175781 123.648438 1458.617188 124.050781 1459.15625 124.34375 C 1459.695312 124.648438 1460.335938 124.796875 1461.074219 124.796875 C 1461.621094 124.796875 1462.109375 124.703125 1462.519531 124.511719 C 1462.9375 124.320312 1463.292969 124.066406 1463.597656 123.730469 C 1463.894531 123.402344 1464.128906 123.015625 1464.296875 122.574219 C 1464.464844 122.125 1464.578125 121.652344 1464.632812 121.144531 L 1467.011719 121.144531 C 1466.957031 121.980469 1466.777344 122.742188 1466.472656 123.433594 C 1466.167969 124.117188 1465.757812 124.710938 1465.234375 125.210938 C 1464.714844 125.714844 1464.101562 126.101562 1463.398438 126.375 C 1462.691406 126.648438 1461.925781 126.785156 1461.074219 126.785156 C 1460.039062 126.785156 1459.105469 126.597656 1458.273438 126.207031 C 1457.445312 125.828125 1456.746094 125.304688 1456.175781 124.640625 C 1455.605469 123.972656 1455.164062 123.203125 1454.859375 122.316406 C 1454.554688 121.433594 1454.40625 120.488281 1454.40625 119.488281 C 1454.40625 118.496094 1454.554688 117.5625 1454.859375 116.671875 C 1455.164062 115.789062 1455.605469 115.015625 1456.175781 114.355469 C 1456.746094 113.691406 1457.445312 113.160156 1458.273438 112.773438 C 1459.105469 112.382812 1460.039062 112.1875 1461.074219 112.1875 C 1461.855469 112.1875 1462.59375 112.292969 1463.277344 112.503906 C 1463.96875 112.726562 1464.578125 113.039062 1465.101562 113.449219 C 1465.636719 113.851562 1466.0625 114.355469 1466.386719 114.9375 C 1466.710938 115.523438 1466.914062 116.195312 1466.988281 116.945312 Z M 1464.546875 116.945312 " fill-opacity="1" fill-rule="nonzero"/></g><g clip-path="url(#f1513c8fb4)"><g clip-path="url(#486d1bdcad)"><g clip-path="url(#d867bb855d)"><path fill="#ffffff" d="M 529.296875 214.679688 C 529.164062 214.617188 529.027344 214.5625 528.890625 214.507812 C 523.148438 212.902344 517.5625 217.128906 514.789062 221.878906 C 512.039062 226.074219 511.277344 232.789062 515.730469 236.136719 C 516.378906 236.609375 517.152344 236.902344 517.941406 237.042969 C 524.824219 237.875 530.824219 232.101562 532.730469 225.871094 C 534.269531 221.988281 533.375 216.550781 529.296875 214.679688 Z M 506.679688 204.230469 C 503.34375 202.746094 499.183594 204.871094 497.164062 207.769531 C 493.101562 213.480469 492.257812 222.570312 497.816406 227.628906 C 498.363281 228.050781 498.984375 228.363281 499.644531 228.558594 C 504.378906 229.910156 508.578125 225.875 510.28125 221.8125 C 512.636719 216.511719 512.792969 209.15625 508.050781 205.097656 C 507.617188 204.730469 507.15625 204.445312 506.679688 204.234375 Z M 535.152344 239.453125 C 529.28125 237.082031 522.664062 240.921875 519.578125 245.976562 C 517 249.453125 516.609375 255.554688 520.839844 257.941406 C 526.980469 260.765625 534.242188 256.21875 537.082031 250.691406 C 539.230469 247.164062 539.183594 241.617188 535.152344 239.453125 Z M 484.582031 216.984375 C 482.164062 215.808594 479.085938 216.128906 477.117188 218.222656 C 471.863281 223.820312 472.144531 234.207031 478.480469 238.917969 C 481.160156 240.804688 484.792969 239.777344 486.796875 237.425781 C 491.070312 232.382812 491.101562 224.1875 487.015625 219.035156 C 486.375 218.136719 485.53125 217.445312 484.582031 216.984375 Z M 504.550781 240.984375 C 499.785156 238.730469 493.800781 238.851562 489.011719 240.984375 C 483.6875 243.59375 478.644531 247.179688 475.0625 251.960938 C 471.957031 255.15625 472.816406 260.933594 476.875 262.894531 C 481.707031 265.355469 487.515625 263.992188 492.503906 266.054688 C 496.933594 267.386719 499.613281 271.292969 502.660156 274.464844 C 505.179688 277.320312 509.796875 278.878906 513.03125 276.242188 C 515.949219 273.375 515.835938 268.785156 515.75 264.96875 C 514.964844 258.46875 514.078125 251.605469 510.382812 246.023438 C 508.917969 243.75 506.878906 242.082031 504.550781 240.984375 Z M 504.550781 240.984375 " fill-opacity="1" fill-rule="nonzero"/></g></g></g><g fill="#eb8815" fill-opacity="1"><g transform="translate(161.993188, 339.051914)"><g><path d="M 78.609375 5.359375 C 60.742188 5.359375 46.210938 -0.472656 35.015625 -12.140625 C 23.816406 -23.816406 18.21875 -40.375 18.21875 -61.8125 C 18.21875 -77.050781 20.835938 -91.578125 26.078125 -105.390625 C 31.316406 -119.210938 38.640625 -131.539062 48.046875 -142.375 C 57.460938 -153.21875 68.363281 -161.734375 80.75 -167.921875 C 93.132812 -174.117188 106.59375 -177.21875 121.125 -177.21875 C 136.125 -177.21875 147.613281 -173.820312 155.59375 -167.03125 C 163.570312 -160.238281 167.5625 -151.242188 167.5625 -140.046875 C 167.5625 -130.765625 163.210938 -121.597656 154.515625 -112.546875 C 145.828125 -103.492188 133.625 -95.332031 117.90625 -88.0625 C 102.1875 -80.800781 83.726562 -75.265625 62.53125 -71.453125 C 62.757812 -55.015625 66.328125 -42.984375 73.234375 -35.359375 C 80.148438 -27.742188 89.679688 -23.9375 101.828125 -23.9375 C 112.066406 -23.9375 121.472656 -26.734375 130.046875 -32.328125 C 138.617188 -37.929688 145.882812 -44.539062 151.84375 -52.15625 L 155.421875 -49.65625 C 150.648438 -40.375 144.515625 -31.5625 137.015625 -23.21875 C 129.515625 -14.882812 120.878906 -8.035156 111.109375 -2.671875 C 101.347656 2.679688 90.515625 5.359375 78.609375 5.359375 Z M 118.625 -167.5625 C 113.144531 -167.5625 107.25 -165.179688 100.9375 -160.421875 C 94.625 -155.660156 88.664062 -149.171875 83.0625 -140.953125 C 77.46875 -132.734375 72.820312 -123.320312 69.125 -112.71875 C 65.4375 -102.125 63.238281 -90.867188 62.53125 -78.953125 C 88.726562 -86.097656 107.363281 -95.503906 118.4375 -107.171875 C 129.507812 -118.847656 135.046875 -132.070312 135.046875 -146.84375 C 135.046875 -153.988281 133.5 -159.226562 130.40625 -162.5625 C 127.3125 -165.894531 123.382812 -167.5625 118.625 -167.5625 Z M 118.625 -167.5625 "/></g></g></g><g fill="#eb8815" fill-opacity="1"><g transform="translate(324.904868, 339.051914)"><g><path d="M 51.453125 5.359375 C 44.066406 5.359375 37.929688 3.394531 33.046875 -0.53125 C 28.160156 -4.46875 25.71875 -10.242188 25.71875 -17.859375 C 25.71875 -22.628906 26.191406 -27.8125 27.140625 -33.40625 C 28.097656 -39 29.175781 -45.015625 30.375 -51.453125 L 55.015625 -164.34375 L 25.359375 -164.34375 L 26.4375 -168.640625 L 39.296875 -170.0625 C 45.972656 -170.78125 51.8125 -172.445312 56.8125 -175.0625 C 61.8125 -177.6875 66.570312 -181.378906 71.09375 -186.140625 L 105.390625 -220.796875 L 110.75 -220.796875 L 100.75 -171.859375 L 139.703125 -171.859375 L 137.90625 -164.34375 L 98.96875 -164.34375 L 74.3125 -45.375 C 73.363281 -40.851562 72.648438 -36.984375 72.171875 -33.765625 C 71.691406 -30.546875 71.453125 -27.863281 71.453125 -25.71875 C 71.453125 -23.34375 72.164062 -21.4375 73.59375 -20 C 75.03125 -18.570312 76.582031 -17.859375 78.25 -17.859375 C 81.582031 -17.859375 85.148438 -19.226562 88.953125 -21.96875 C 92.765625 -24.707031 97.53125 -28.816406 103.25 -34.296875 L 107.546875 -30.71875 C 101.585938 -21.90625 93.84375 -13.6875 84.3125 -6.0625 C 74.789062 1.550781 63.835938 5.359375 51.453125 5.359375 Z M 51.453125 5.359375 "/></g></g></g><g fill="#ffffff" fill-opacity="1"><g transform="translate(516.412272, 340.883189)"><g><path d="M 198.15625 -173.34375 C 195.695312 -182.507812 191.195312 -192.117188 184.65625 -202.171875 C 178.125 -212.234375 172.484375 -218.519531 167.734375 -221.03125 C 162.984375 -223.550781 151.722656 -224.8125 133.953125 -224.8125 L 123.890625 -224.8125 L 123.890625 -34.703125 C 123.890625 -28.441406 125.898438 -23.519531 129.921875 -19.9375 C 133.953125 -16.363281 144.796875 -13.742188 162.453125 -12.078125 L 162.453125 0 L 50.125 0 L 50.125 -12.078125 C 66.550781 -13.191406 77 -15.03125 81.46875 -17.59375 C 85.945312 -20.164062 88.1875 -25.3125 88.1875 -33.03125 L 88.1875 -224.8125 L 78.625 -224.8125 C 62.414062 -224.8125 51.9375 -224 47.1875 -222.375 C 42.4375 -220.757812 36.566406 -214.894531 29.578125 -204.78125 C 22.597656 -194.664062 17.546875 -184.1875 14.421875 -173.34375 L 2.34375 -173.34375 L 2.34375 -237.890625 L 209.734375 -237.890625 L 209.734375 -173.34375 Z M 198.15625 -173.34375 "/></g></g></g><g fill="#ffffff" fill-opacity="1"><g transform="translate(728.97818, 340.883189)"><g><path d="M 211.90625 0 L 14.421875 0 L 14.421875 -12.078125 C 29.390625 -13.304688 38.800781 -15.234375 42.65625 -17.859375 C 46.519531 -20.484375 48.453125 -25.316406 48.453125 -32.359375 L 48.453125 -203.1875 C 48.453125 -211.007812 45.460938 -216.539062 39.484375 -219.78125 C 33.503906 -223.03125 25.148438 -225.097656 14.421875 -225.984375 L 14.421875 -237.890625 L 198.5 -237.890625 L 198.5 -180.5625 L 186.09375 -180.5625 C 183.738281 -189.28125 179.289062 -197.773438 172.75 -206.046875 C 166.21875 -214.316406 160.601562 -219.457031 155.90625 -221.46875 C 151.21875 -223.476562 139.765625 -224.484375 121.546875 -224.484375 L 84.15625 -224.484375 L 84.15625 -130.09375 L 110.984375 -130.09375 C 123.609375 -130.09375 132.710938 -132.914062 138.296875 -138.5625 C 143.890625 -144.207031 147.804688 -154.347656 150.046875 -168.984375 L 162.453125 -168.984375 L 162.453125 -75.9375 L 150.046875 -75.9375 C 149.484375 -81.53125 147.914062 -88.097656 145.34375 -95.640625 C 142.78125 -103.179688 139.125 -108.515625 134.375 -111.640625 C 129.625 -114.773438 121.828125 -116.34375 110.984375 -116.34375 L 84.15625 -116.34375 L 84.15625 -44.9375 C 84.15625 -31.300781 86.304688 -22.691406 90.609375 -19.109375 C 94.910156 -15.535156 106.226562 -13.75 124.5625 -13.75 L 139.140625 -13.75 C 154.796875 -13.75 165.359375 -14.976562 170.828125 -17.4375 C 176.304688 -19.894531 182.34375 -26.65625 188.9375 -37.71875 C 195.53125 -48.78125 200.671875 -59.566406 204.359375 -70.078125 L 216.265625 -70.078125 Z M 211.90625 0 "/></g></g></g><g fill="#ffffff" fill-opacity="1"><g transform="translate(953.111209, 340.883189)"><g><path d="M 215.9375 -60.015625 C 198.5 -16.316406 166.921875 5.53125 121.203125 5.53125 C 90.921875 5.53125 65.328125 -5.835938 44.421875 -28.578125 C 23.523438 -51.328125 13.078125 -80.695312 13.078125 -116.6875 C 13.078125 -153.5625 23.832031 -183.847656 45.34375 -207.546875 C 66.863281 -231.242188 93.882812 -243.09375 126.40625 -243.09375 C 148.195312 -243.09375 167.867188 -237.613281 185.421875 -226.65625 L 192.296875 -237.890625 L 205.703125 -237.890625 L 207.375 -153.0625 L 193.296875 -153.0625 C 182.453125 -203.6875 160.828125 -229 128.421875 -229 C 105.617188 -229 87.367188 -219.273438 73.671875 -199.828125 C 59.984375 -180.390625 53.140625 -153.515625 53.140625 -119.203125 C 53.140625 -88.796875 60.679688 -63.5625 75.765625 -43.5 C 90.859375 -23.4375 110.140625 -13.40625 133.609375 -13.40625 C 166.585938 -13.40625 189.894531 -31.007812 203.53125 -66.21875 Z M 215.9375 -60.015625 "/></g></g></g><g fill="#ffffff" fill-opacity="1"><g transform="translate(1173.556183, 340.883189)"><g><path d="M 164.125 0 L 164.125 -12.078125 C 177.09375 -13.191406 184.773438 -14.25 187.171875 -15.25 C 189.578125 -16.257812 191.585938 -17.992188 193.203125 -20.453125 C 194.828125 -22.910156 195.640625 -26.597656 195.640625 -31.515625 L 195.640625 -116.34375 L 84.15625 -116.34375 L 84.15625 -33.703125 C 84.15625 -26.878906 86.222656 -21.816406 90.359375 -18.515625 C 94.492188 -15.222656 102.707031 -13.078125 115 -12.078125 L 115 0 L 16.421875 0 L 16.421875 -12.078125 C 31.734375 -12.742188 40.898438 -14.804688 43.921875 -18.265625 C 46.941406 -21.734375 48.453125 -26.148438 48.453125 -31.515625 L 48.453125 -203.1875 C 48.453125 -216.601562 37.773438 -224.203125 16.421875 -225.984375 L 16.421875 -237.890625 L 115 -237.890625 L 115 -225.984375 C 103.269531 -224.984375 95.195312 -223.195312 90.78125 -220.625 C 86.363281 -218.050781 84.15625 -212.851562 84.15625 -205.03125 L 84.15625 -131.09375 L 195.640625 -131.09375 L 195.640625 -203.1875 C 195.640625 -216.601562 185.132812 -224.203125 164.125 -225.984375 L 164.125 -237.890625 L 262.703125 -237.890625 L 262.703125 -225.984375 C 250.859375 -224.984375 242.671875 -223.140625 238.140625 -220.453125 C 233.617188 -217.773438 231.359375 -212.632812 231.359375 -205.03125 L 231.359375 -33.703125 C 231.359375 -26.660156 233.617188 -21.546875 238.140625 -18.359375 C 242.671875 -15.171875 250.859375 -13.078125 262.703125 -12.078125 L 262.703125 0 Z M 164.125 0 "/></g></g></g><g fill="#eb8815" fill-opacity="1"><g transform="translate(-11.712055, 351.089456)"><g><path d="M 81.296875 1.4375 L 45.53125 -213.171875 C 44.082031 -222.085938 39.144531 -229.070312 30.71875 -234.125 L 29.265625 -234.859375 L 29.984375 -238.46875 L 114.890625 -238.46875 L 114.53125 -234.859375 L 109.84375 -233.046875 C 100.6875 -228.953125 96.832031 -222.328125 98.28125 -213.171875 L 121.765625 -50.578125 L 203.78125 -214.265625 C 208.351562 -223.890625 205.703125 -230.390625 195.828125 -233.765625 L 192.21875 -234.859375 L 192.9375 -238.46875 L 242.078125 -238.46875 L 241.359375 -234.859375 L 237.375 -233.765625 C 226.539062 -229.910156 218.472656 -222.804688 213.171875 -212.453125 L 104.421875 1.4375 Z M 81.296875 1.4375 "/></g></g></g></svg>